# xmcd CD database file
#
# Track frame offsets:
#	150
#	9040
#	23487
#	42297
#	66807
#	82627
#	96452
#	133140
#	152450
#	166505
#	185990
#	246275
#	264845
#	287197
#
# Disc length: 4288 seconds
#
# Revision: 5
# Processed by: cddbd v1.5.2PL0 Copyright (c) Steve Scherf et al.
# Submitted via: CDex 1.51
#
DISCID=a810be0e
DTITLE=Various Artist - The King of Bass
DYEAR=1999
DGENRE=Jazz
TTITLE0=Traditional/joshua fit the battle O'jerico
TTITLE1=Traditional/SwingLow, Sweet Chariot
TTITLE2=Christian Gentet/Bass
TTITLE3=R.Garcia-Fons/Palmas
TTITLE4=Giovannni Bottesini/Reverie
TTITLE5=John Williams/La Liste de Schindier
TTITLE6=Kiyoto Fujiwara/Sky &sea
TTITLE7=Henri Duparc/L'invitaion Au Coyage
TTITLE8=Maurice Ravel/Picec En Forme De Habanera
TTITLE9=Vittorio Monti/Csardis
TTITLE10=Astor Piazzola/Contrabajissimo
TTITLE11=Stefan Kar?son?/Trikings
TTITLE12=Kiyoto Fujiwara/Plower Mountain
TTITLE13=Charles Mingus/Better git hit in you soul
EXTD=YEAR: 1999
EXTT0=
EXTT1=
EXTT2=
EXTT3=
EXTT4=
EXTT5=
EXTT6=
EXTT7=
EXTT8=
EXTT9=
EXTT10=
EXTT11=
EXTT12=
EXTT13=
PLAYORDER=
